<svg width="100%" height="419" viewBox="0 0 927 419" fill="none" xmlns="http://www.w3.org/2000/svg" class="enable">
              <mask id="path-1-inside-1_662_6807" fill="white">
              <path d="M927 362.393V418.12H467.24V393.857H345.596V418.12H0V364.736C0 351.606 13.133 345.471 18.7861 347.367C24.4047 349.228 28.6445 347.367 30.5404 342.68C32.4017 337.993 37.5722 334.685 41.812 335.167C46.0518 335.65 50.7398 332.341 54.497 332.341C58.2542 332.341 63.4247 336.098 63.4247 328.585C63.4247 321.072 67.1819 304.633 78.9362 304.633C90.6904 304.633 96.7916 314.49 97.2397 316.833C97.7223 309.32 108.029 305.564 113.682 308.838C119.3 312.112 122.127 316.833 120.266 326.207C125.884 325.724 132.02 327.137 132.951 329.963C133.881 332.789 136.225 334.65 139.982 333.72C143.74 332.789 148.428 331.859 150.323 332.789C151.254 325.276 157.355 318.694 163.939 318.694C170.523 318.694 179.451 324.311 179.451 327.137C180.381 326.655 188.826 323.381 191.653 326.655V166.542H249.424V104.578H298.268V59.9835H341.011V87.7258L290.582 126.083H302.612L467.274 0.880127L644.829 126.117H657.169L589.436 78.352H666.821V127.634H709.081V168.162C710.529 168.162 711.977 168.954 713.321 169.195C715.424 169.54 716.492 165.68 718.595 164.956C720.697 164.267 721.766 166.369 723.869 166.369C725.971 166.369 725.971 163.199 731.624 163.199C737.278 163.199 737.967 168.472 740.07 168.472C742.172 168.472 744.309 168.472 744.999 169.885C745.688 171.298 748.859 170.953 750.273 169.885C751.686 168.816 755.547 168.127 756.27 169.54C756.96 170.953 759.442 171.298 760.51 169.885C761.579 168.472 765.095 169.54 765.439 170.574C765.784 171.642 768.266 172.676 776.022 178.328C783.778 183.98 785.88 186.771 783.778 190.286C781.675 193.802 787.293 197.317 793.291 198.385C799.289 199.454 807.01 208.965 805.631 212.48C804.218 215.996 804.218 218.098 807.389 220.234C810.561 222.337 810.216 228.333 810.216 230.091C810.216 231.848 808.803 235.019 809.527 237.121C810.216 239.223 813.043 244.152 811.285 248.735C809.527 253.319 806.355 254.352 803.184 254.352C800.013 254.352 794.394 256.834 790.499 264.553C786.638 272.307 775.367 267.035 773.954 269.757C772.54 272.48 768.335 271.239 765.026 269.826C761.751 268.413 757.029 285.782 754.237 302.221C765.508 298.947 769.748 304.564 772.54 309.251C775.367 313.938 775.367 306.425 787.087 306.425C798.806 306.425 799.772 318.177 797.876 323.795C808.217 321.451 811.009 328.033 812.422 332.238C813.835 336.477 820.419 330.825 824.176 332.238C827.934 333.651 827.934 323.795 833.552 319.108C839.171 314.421 850.442 317.695 854.682 322.244C858.922 326.793 861.714 323.312 864.058 322.382C866.402 321.451 873.434 325.656 876.26 326.138C879.087 326.62 885.636 328.481 886.601 332.238C887.532 335.994 888.945 328.964 899.734 328.964C910.523 328.964 911.489 341.164 911.006 349.607C915.246 347.264 926.966 350.09 926.966 362.289L927 362.393ZM482.752 133.768H521.254V84.0039C521.254 73.3894 512.637 64.7393 501.986 64.7393C491.335 64.7393 482.717 73.3549 482.717 84.0039V133.768H482.752ZM400.024 133.768H438.527V84.0039C438.527 73.3894 429.909 64.7393 419.258 64.7393C408.607 64.7393 399.989 73.3549 399.989 84.0039V133.768H400.024ZM398.162 154.893H440.422V142.211H398.162V154.893ZM312.436 129.081H303.301V417.114H312.436V129.046V129.081ZM454.59 369.009H357.867V390.135H365.726V377.832H446.765V390.135H454.624V369.009H454.59ZM442.835 254.215V250.699H368.621V362.427H442.835V254.215ZM450.35 238.948C450.35 219.89 430.357 204.451 405.746 204.451C381.134 204.451 361.142 219.89 361.142 238.948H450.384H450.35ZM470.308 238.948C470.308 211.033 441.319 188.322 405.711 188.322C370.104 188.322 341.115 211.033 341.115 238.948H347.526C347.526 214.548 373.62 194.698 405.711 194.698C437.803 194.698 463.896 214.548 463.896 238.948H470.308ZM480.856 255.869H467.24V332.41H480.856V255.869ZM523.116 142.246H480.856V154.928H523.116V142.246ZM608.739 286.368H534.077V338.958H608.739V286.368ZM617.908 264.312H524.943V275.581H617.908V264.312ZM608.739 250.699V198.109H534.077V250.699H608.739ZM617.908 176.053H524.943V187.323H617.908V176.053ZM640.417 129.115H631.11V417.114H640.417V129.046V129.115ZM728.453 274.203C730.935 276.684 735.485 283.37 736.554 286.161C736.554 280.165 736.898 274.892 736.898 273.479C734.417 271.377 728.453 265.036 726.316 266.07C724.213 267.138 725.971 271.687 728.419 274.168L728.453 274.203ZM730.556 330.205C733.727 329.515 736.554 332.307 737.967 332.686C739.38 333.031 736.898 317.557 735.14 300.636C733.382 283.749 718.25 266.828 714.01 265.76C712.425 265.38 710.805 264.932 709.081 264.519V337.959C713.286 334.719 717.94 332.858 721.421 333.375C726.006 334.064 727.419 330.894 730.59 330.205H730.556Z"></path>
              </mask>
              <path d="M927 362.393V418.12H467.24V393.857H345.596V418.12H0V364.736C0 351.606 13.133 345.471 18.7861 347.367C24.4047 349.228 28.6445 347.367 30.5404 342.68C32.4017 337.993 37.5722 334.685 41.812 335.167C46.0518 335.65 50.7398 332.341 54.497 332.341C58.2542 332.341 63.4247 336.098 63.4247 328.585C63.4247 321.072 67.1819 304.633 78.9362 304.633C90.6904 304.633 96.7916 314.49 97.2397 316.833C97.7223 309.32 108.029 305.564 113.682 308.838C119.3 312.112 122.127 316.833 120.266 326.207C125.884 325.724 132.02 327.137 132.951 329.963C133.881 332.789 136.225 334.65 139.982 333.72C143.74 332.789 148.428 331.859 150.323 332.789C151.254 325.276 157.355 318.694 163.939 318.694C170.523 318.694 179.451 324.311 179.451 327.137C180.381 326.655 188.826 323.381 191.653 326.655V166.542H249.424V104.578H298.268V59.9835H341.011V87.7258L290.582 126.083H302.612L467.274 0.880127L644.829 126.117H657.169L589.436 78.352H666.821V127.634H709.081V168.162C710.529 168.162 711.977 168.954 713.321 169.195C715.424 169.54 716.492 165.68 718.595 164.956C720.697 164.267 721.766 166.369 723.869 166.369C725.971 166.369 725.971 163.199 731.624 163.199C737.278 163.199 737.967 168.472 740.07 168.472C742.172 168.472 744.309 168.472 744.999 169.885C745.688 171.298 748.859 170.953 750.273 169.885C751.686 168.816 755.547 168.127 756.27 169.54C756.96 170.953 759.442 171.298 760.51 169.885C761.579 168.472 765.095 169.54 765.439 170.574C765.784 171.642 768.266 172.676 776.022 178.328C783.778 183.98 785.88 186.771 783.778 190.286C781.675 193.802 787.293 197.317 793.291 198.385C799.289 199.454 807.01 208.965 805.631 212.48C804.218 215.996 804.218 218.098 807.389 220.234C810.561 222.337 810.216 228.333 810.216 230.091C810.216 231.848 808.803 235.019 809.527 237.121C810.216 239.223 813.043 244.152 811.285 248.735C809.527 253.319 806.355 254.352 803.184 254.352C800.013 254.352 794.394 256.834 790.499 264.553C786.638 272.307 775.367 267.035 773.954 269.757C772.54 272.48 768.335 271.239 765.026 269.826C761.751 268.413 757.029 285.782 754.237 302.221C765.508 298.947 769.748 304.564 772.54 309.251C775.367 313.938 775.367 306.425 787.087 306.425C798.806 306.425 799.772 318.177 797.876 323.795C808.217 321.451 811.009 328.033 812.422 332.238C813.835 336.477 820.419 330.825 824.176 332.238C827.934 333.651 827.934 323.795 833.552 319.108C839.171 314.421 850.442 317.695 854.682 322.244C858.922 326.793 861.714 323.312 864.058 322.382C866.402 321.451 873.434 325.656 876.26 326.138C879.087 326.62 885.636 328.481 886.601 332.238C887.532 335.994 888.945 328.964 899.734 328.964C910.523 328.964 911.489 341.164 911.006 349.607C915.246 347.264 926.966 350.09 926.966 362.289L927 362.393ZM482.752 133.768H521.254V84.0039C521.254 73.3894 512.637 64.7393 501.986 64.7393C491.335 64.7393 482.717 73.3549 482.717 84.0039V133.768H482.752ZM400.024 133.768H438.527V84.0039C438.527 73.3894 429.909 64.7393 419.258 64.7393C408.607 64.7393 399.989 73.3549 399.989 84.0039V133.768H400.024ZM398.162 154.893H440.422V142.211H398.162V154.893ZM312.436 129.081H303.301V417.114H312.436V129.046V129.081ZM454.59 369.009H357.867V390.135H365.726V377.832H446.765V390.135H454.624V369.009H454.59ZM442.835 254.215V250.699H368.621V362.427H442.835V254.215ZM450.35 238.948C450.35 219.89 430.357 204.451 405.746 204.451C381.134 204.451 361.142 219.89 361.142 238.948H450.384H450.35ZM470.308 238.948C470.308 211.033 441.319 188.322 405.711 188.322C370.104 188.322 341.115 211.033 341.115 238.948H347.526C347.526 214.548 373.62 194.698 405.711 194.698C437.803 194.698 463.896 214.548 463.896 238.948H470.308ZM480.856 255.869H467.24V332.41H480.856V255.869ZM523.116 142.246H480.856V154.928H523.116V142.246ZM608.739 286.368H534.077V338.958H608.739V286.368ZM617.908 264.312H524.943V275.581H617.908V264.312ZM608.739 250.699V198.109H534.077V250.699H608.739ZM617.908 176.053H524.943V187.323H617.908V176.053ZM640.417 129.115H631.11V417.114H640.417V129.046V129.115ZM728.453 274.203C730.935 276.684 735.485 283.37 736.554 286.161C736.554 280.165 736.898 274.892 736.898 273.479C734.417 271.377 728.453 265.036 726.316 266.07C724.213 267.138 725.971 271.687 728.419 274.168L728.453 274.203ZM730.556 330.205C733.727 329.515 736.554 332.307 737.967 332.686C739.38 333.031 736.898 317.557 735.14 300.636C733.382 283.749 718.25 266.828 714.01 265.76C712.425 265.38 710.805 264.932 709.081 264.519V337.959C713.286 334.719 717.94 332.858 721.421 333.375C726.006 334.064 727.419 330.894 730.59 330.205H730.556Z" stroke="#002855" stroke-width="4" mask="url(#path-1-inside-1_662_6807)"></path>
              <path d="M213.218 302.596L213.247 302.355L213.162 302.128L211.46 297.558L213.241 293.813L218.258 292.482L222.615 293.636L224.366 297.77L222.851 302.204L222.797 302.361V302.527V309.43L213.18 302.916L213.218 302.596Z" stroke="#002855" stroke-width="2"></path>
            </svg>